<svg xmlns="http://www.w3.org/2000/svg" xmlns:xlink="http://www.w3.org/1999/xlink" width="500" zoomAndPan="magnify" viewBox="0 0 375 374.999991" height="500" preserveAspectRatio="xMidYMid meet" version="1.0"><defs><g/><clipPath id="a1c7d017df"><path d="M 108 52 L 257 52 L 257 201 L 108 201 Z M 108 52 " clip-rule="nonzero"/></clipPath><clipPath id="1c92b39ad8"><path d="M 74.675781 133.398438 L 189.214844 18.859375 L 257.570312 87.214844 L 143.03125 201.753906 Z M 74.675781 133.398438 " clip-rule="nonzero"/></clipPath><clipPath id="68418472c9"><path d="M 74.675781 133.398438 L 189.214844 18.859375 L 257.570312 87.214844 L 143.03125 201.753906 Z M 74.675781 133.398438 " clip-rule="nonzero"/></clipPath><clipPath id="e2a2c6cdb0"><path d="M 118 123 L 267 123 L 267 272 L 118 272 Z M 118 123 " clip-rule="nonzero"/></clipPath><clipPath id="4aa056f00b"><path d="M 300.324219 189.816406 L 185.785156 304.355469 L 117.429688 236.003906 L 231.96875 121.464844 Z M 300.324219 189.816406 " clip-rule="nonzero"/></clipPath><clipPath id="c098592a9b"><path d="M 300.324219 189.816406 L 185.785156 304.355469 L 117.429688 236.003906 L 231.96875 121.464844 Z M 300.324219 189.816406 " clip-rule="nonzero"/></clipPath></defs><g clip-path="url(#a1c7d017df)"><g clip-path="url(#1c92b39ad8)"><g clip-path="url(#68418472c9)"><path fill="#42b095" d="M 246.328125 75.792969 L 255.277344 84.742188 C 255.539062 85 255.738281 85.300781 255.882812 85.640625 C 256.023438 85.980469 256.09375 86.335938 256.09375 86.707031 C 256.09375 87.074219 256.023438 87.429688 255.882812 87.769531 C 255.738281 88.109375 255.539062 88.410156 255.277344 88.667969 L 144.617188 199.332031 C 144.355469 199.59375 144.054688 199.792969 143.714844 199.9375 C 143.375 200.078125 143.019531 200.148438 142.652344 200.148438 C 142.28125 200.148438 141.925781 200.078125 141.585938 199.9375 C 141.246094 199.792969 140.945312 199.59375 140.6875 199.332031 L 131.738281 190.382812 C 130.800781 189.445312 129.886719 188.484375 128.996094 187.5 C 128.105469 186.519531 127.238281 185.515625 126.398438 184.488281 C 125.554688 183.464844 124.742188 182.417969 123.949219 181.355469 C 123.160156 180.289062 122.398438 179.207031 121.660156 178.101562 C 120.925781 177 120.214844 175.878906 119.535156 174.742188 C 118.851562 173.605469 118.199219 172.453125 117.574219 171.28125 C 116.949219 170.113281 116.351562 168.929688 115.785156 167.730469 C 115.21875 166.53125 114.679688 165.320312 114.171875 164.09375 C 113.664062 162.871094 113.1875 161.632812 112.742188 160.382812 C 112.296875 159.136719 111.878906 157.875 111.496094 156.609375 C 111.109375 155.339844 110.757812 154.0625 110.433594 152.773438 C 110.113281 151.488281 109.820312 150.195312 109.5625 148.894531 C 109.304688 147.59375 109.078125 146.289062 108.882812 144.976562 C 108.6875 143.664062 108.527344 142.347656 108.394531 141.027344 C 108.265625 139.710938 108.167969 138.386719 108.101562 137.0625 C 108.039062 135.738281 108.003906 134.414062 108.003906 133.085938 C 108.003906 131.761719 108.039062 130.433594 108.101562 129.109375 C 108.167969 127.785156 108.265625 126.464844 108.394531 125.144531 C 108.527344 123.824219 108.6875 122.507812 108.882812 121.199219 C 109.078125 119.886719 109.304688 118.578125 109.5625 117.277344 C 109.820312 115.980469 110.113281 114.683594 110.433594 113.398438 C 110.757812 112.113281 111.109375 110.835938 111.496094 109.566406 C 111.878906 108.296875 112.296875 107.039062 112.742188 105.789062 C 113.1875 104.542969 113.664062 103.304688 114.171875 102.078125 C 114.679688 100.855469 115.21875 99.640625 115.785156 98.441406 C 116.351562 97.246094 116.949219 96.058594 117.574219 94.890625 C 118.199219 93.722656 118.851562 92.566406 119.535156 91.429688 C 120.214844 90.292969 120.925781 89.171875 121.660156 88.070312 C 122.398438 86.96875 123.160156 85.882812 123.949219 84.820312 C 124.742188 83.753906 125.554688 82.707031 126.398438 81.683594 C 127.238281 80.660156 128.105469 79.65625 128.996094 78.671875 C 129.886719 77.691406 130.800781 76.730469 131.738281 75.792969 C 132.675781 74.855469 133.636719 73.941406 134.617188 73.050781 C 135.601562 72.160156 136.605469 71.292969 137.628906 70.453125 C 138.65625 69.609375 139.699219 68.796875 140.765625 68.003906 C 141.828125 67.214844 142.914062 66.453125 144.015625 65.714844 C 145.117188 64.980469 146.238281 64.269531 147.375 63.585938 C 148.511719 62.90625 149.667969 62.253906 150.835938 61.628906 C 152.007812 61.003906 153.191406 60.40625 154.390625 59.839844 C 155.585938 59.273438 156.800781 58.734375 158.023438 58.226562 C 159.25 57.71875 160.488281 57.242188 161.734375 56.796875 C 162.984375 56.351562 164.242188 55.933594 165.511719 55.550781 C 166.78125 55.164062 168.058594 54.808594 169.34375 54.488281 C 170.628906 54.164062 171.925781 53.875 173.226562 53.617188 C 174.523438 53.359375 175.832031 53.132812 177.144531 52.9375 C 178.453125 52.742188 179.769531 52.578125 181.089844 52.449219 C 182.410156 52.320312 183.730469 52.222656 185.054688 52.15625 C 186.382812 52.09375 187.707031 52.058594 189.03125 52.058594 C 190.359375 52.058594 191.683594 52.09375 193.007812 52.15625 C 194.332031 52.222656 195.65625 52.320312 196.972656 52.449219 C 198.292969 52.578125 199.609375 52.742188 200.921875 52.9375 C 202.234375 53.132812 203.539062 53.359375 204.839844 53.617188 C 206.140625 53.875 207.433594 54.164062 208.71875 54.488281 C 210.007812 54.808594 211.285156 55.164062 212.554688 55.550781 C 213.820312 55.933594 215.082031 56.351562 216.328125 56.796875 C 217.578125 57.242188 218.816406 57.71875 220.039062 58.226562 C 221.265625 58.734375 222.476562 59.273438 223.675781 59.839844 C 224.875 60.40625 226.058594 61.003906 227.226562 61.628906 C 228.398438 62.253906 229.550781 62.90625 230.6875 63.585938 C 231.824219 64.269531 232.945312 64.980469 234.046875 65.714844 C 235.152344 66.453125 236.234375 67.214844 237.300781 68.003906 C 238.363281 68.796875 239.410156 69.609375 240.433594 70.453125 C 241.460938 71.292969 242.464844 72.160156 243.445312 73.050781 C 244.429688 73.941406 245.390625 74.855469 246.328125 75.792969 Z M 246.328125 75.792969 " fill-opacity="1" fill-rule="nonzero"/></g></g></g><g clip-path="url(#e2a2c6cdb0)"><g clip-path="url(#4aa056f00b)"><g clip-path="url(#c098592a9b)"><path fill="#42b095" d="M 128.671875 247.425781 L 119.722656 238.476562 C 119.460938 238.214844 119.257812 237.914062 119.117188 237.574219 C 118.976562 237.234375 118.90625 236.878906 118.90625 236.511719 C 118.90625 236.140625 118.976562 235.789062 119.117188 235.445312 C 119.257812 235.105469 119.460938 234.804688 119.722656 234.546875 L 230.382812 123.886719 C 230.644531 123.625 230.945312 123.421875 231.285156 123.28125 C 231.625 123.136719 231.980469 123.066406 232.347656 123.066406 C 232.71875 123.066406 233.070312 123.136719 233.410156 123.28125 C 233.753906 123.421875 234.050781 123.625 234.3125 123.886719 L 243.261719 132.835938 C 244.199219 133.773438 245.113281 134.734375 246.003906 135.714844 C 246.894531 136.699219 247.761719 137.703125 248.601562 138.726562 C 249.441406 139.75 250.257812 140.796875 251.046875 141.863281 C 251.839844 142.925781 252.601562 144.011719 253.339844 145.113281 C 254.074219 146.214844 254.785156 147.335938 255.464844 148.472656 C 256.148438 149.609375 256.800781 150.765625 257.425781 151.933594 C 258.050781 153.101562 258.648438 154.289062 259.214844 155.484375 C 259.78125 156.683594 260.316406 157.898438 260.824219 159.121094 C 261.332031 160.347656 261.808594 161.582031 262.257812 162.832031 C 262.703125 164.082031 263.121094 165.339844 263.503906 166.609375 C 263.890625 167.878906 264.242188 169.15625 264.566406 170.441406 C 264.886719 171.726562 265.179688 173.019531 265.4375 174.320312 C 265.695312 175.621094 265.921875 176.929688 266.117188 178.242188 C 266.3125 179.550781 266.472656 180.867188 266.601562 182.1875 C 266.734375 183.507812 266.832031 184.828125 266.894531 186.152344 C 266.960938 187.476562 266.992188 188.804688 266.992188 190.128906 C 266.992188 191.457031 266.960938 192.78125 266.894531 194.105469 C 266.832031 195.429688 266.734375 196.75 266.601562 198.070312 C 266.472656 199.390625 266.3125 200.707031 266.117188 202.019531 C 265.921875 203.332031 265.695312 204.636719 265.4375 205.9375 C 265.179688 207.238281 264.886719 208.53125 264.566406 209.816406 C 264.242188 211.105469 263.890625 212.382812 263.503906 213.652344 C 263.121094 214.917969 262.703125 216.179688 262.257812 217.425781 C 261.808594 218.675781 261.332031 219.914062 260.824219 221.136719 C 260.316406 222.363281 259.78125 223.574219 259.214844 224.773438 C 258.648438 225.972656 258.050781 227.15625 257.425781 228.324219 C 256.800781 229.496094 256.148438 230.648438 255.464844 231.785156 C 254.785156 232.921875 254.074219 234.042969 253.339844 235.144531 C 252.601562 236.25 251.839844 237.332031 251.046875 238.398438 C 250.257812 239.460938 249.441406 240.507812 248.601562 241.53125 C 247.761719 242.558594 246.894531 243.5625 246.003906 244.542969 C 245.113281 245.527344 244.199219 246.488281 243.261719 247.425781 C 242.324219 248.363281 241.363281 249.277344 240.382812 250.167969 C 239.398438 251.058594 238.394531 251.921875 237.371094 252.765625 C 236.34375 253.605469 235.300781 254.421875 234.234375 255.210938 C 233.167969 256 232.085938 256.765625 230.984375 257.5 C 229.878906 258.238281 228.761719 258.945312 227.621094 259.628906 C 226.484375 260.308594 225.332031 260.964844 224.164062 261.589844 C 222.992188 262.214844 221.808594 262.808594 220.609375 263.378906 C 219.410156 263.945312 218.199219 264.480469 216.972656 264.988281 C 215.75 265.496094 214.511719 265.972656 213.265625 266.421875 C 212.015625 266.867188 210.757812 267.28125 209.488281 267.667969 C 208.21875 268.050781 206.941406 268.40625 205.65625 268.726562 C 204.367188 269.050781 203.074219 269.339844 201.773438 269.597656 C 200.472656 269.859375 199.167969 270.085938 197.855469 270.28125 C 196.542969 270.472656 195.226562 270.636719 193.910156 270.765625 C 192.589844 270.894531 191.265625 270.992188 189.941406 271.058594 C 188.617188 271.125 187.292969 271.15625 185.964844 271.15625 C 184.640625 271.15625 183.316406 271.125 181.992188 271.058594 C 180.667969 270.992188 179.34375 270.894531 178.023438 270.765625 C 176.703125 270.636719 175.390625 270.472656 174.078125 270.28125 C 172.765625 270.085938 171.460938 269.859375 170.160156 269.597656 C 168.859375 269.339844 167.566406 269.050781 166.277344 268.726562 C 164.992188 268.40625 163.714844 268.050781 162.445312 267.667969 C 161.175781 267.28125 159.917969 266.867188 158.667969 266.421875 C 157.421875 265.972656 156.183594 265.496094 154.957031 264.988281 C 153.734375 264.480469 152.523438 263.945312 151.324219 263.378906 C 150.125 262.808594 148.941406 262.214844 147.769531 261.589844 C 146.601562 260.964844 145.449219 260.308594 144.308594 259.628906 C 143.171875 258.945312 142.054688 258.238281 140.949219 257.5 C 139.847656 256.765625 138.765625 256 137.699219 255.210938 C 136.632812 254.421875 135.589844 253.605469 134.5625 252.765625 C 133.539062 251.921875 132.535156 251.058594 131.550781 250.167969 C 130.570312 249.277344 129.609375 248.363281 128.671875 247.425781 Z M 128.671875 247.425781 " fill-opacity="1" fill-rule="nonzero"/></g></g></g><g fill="#424242" fill-opacity="1"><g transform="translate(3.708909, 339.121236)"><g><path d="M 19.515625 0.75 C 16.054688 0.75 12.71875 0.28125 9.5 -0.65625 C 6.28125 -1.59375 3.695312 -2.804688 1.75 -4.296875 L 5.171875 -11.90625 C 7.046875 -10.53125 9.269531 -9.425781 11.84375 -8.59375 C 14.414062 -7.769531 16.992188 -7.359375 19.578125 -7.359375 C 22.441406 -7.359375 24.554688 -7.78125 25.921875 -8.625 C 27.296875 -9.476562 27.984375 -10.613281 27.984375 -12.03125 C 27.984375 -13.070312 27.578125 -13.929688 26.765625 -14.609375 C 25.953125 -15.296875 24.910156 -15.847656 23.640625 -16.265625 C 22.378906 -16.679688 20.671875 -17.140625 18.515625 -17.640625 C 15.191406 -18.429688 12.46875 -19.21875 10.34375 -20 C 8.226562 -20.789062 6.410156 -22.054688 4.890625 -23.796875 C 3.378906 -25.546875 2.625 -27.878906 2.625 -30.796875 C 2.625 -33.328125 3.304688 -35.617188 4.671875 -37.671875 C 6.046875 -39.734375 8.113281 -41.363281 10.875 -42.5625 C 13.632812 -43.769531 17.007812 -44.375 21 -44.375 C 23.789062 -44.375 26.515625 -44.039062 29.171875 -43.375 C 31.828125 -42.71875 34.15625 -41.765625 36.15625 -40.515625 L 33.03125 -32.84375 C 29 -35.132812 24.96875 -36.28125 20.9375 -36.28125 C 18.113281 -36.28125 16.023438 -35.820312 14.671875 -34.90625 C 13.328125 -33.988281 12.65625 -32.78125 12.65625 -31.28125 C 12.65625 -29.789062 13.429688 -28.679688 14.984375 -27.953125 C 16.546875 -27.222656 18.925781 -26.503906 22.125 -25.796875 C 25.445312 -25.015625 28.164062 -24.226562 30.28125 -23.4375 C 32.40625 -22.644531 34.222656 -21.394531 35.734375 -19.6875 C 37.253906 -17.988281 38.015625 -15.6875 38.015625 -12.78125 C 38.015625 -10.28125 37.316406 -8 35.921875 -5.9375 C 34.535156 -3.882812 32.453125 -2.253906 29.671875 -1.046875 C 26.890625 0.148438 23.503906 0.75 19.515625 0.75 Z M 19.515625 0.75 "/></g></g></g><g fill="#424242" fill-opacity="1"><g transform="translate(43.470521, 339.121236)"><g><path d="M 24.0625 -43.625 C 27.925781 -43.625 31.28125 -42.976562 34.125 -41.6875 C 36.96875 -40.40625 39.15625 -38.578125 40.6875 -36.203125 C 42.226562 -33.835938 43 -31.035156 43 -27.796875 C 43 -24.597656 42.226562 -21.800781 40.6875 -19.40625 C 39.15625 -17.019531 36.96875 -15.191406 34.125 -13.921875 C 31.28125 -12.660156 27.925781 -12.03125 24.0625 -12.03125 L 15.265625 -12.03125 L 15.265625 0 L 5.171875 0 L 5.171875 -43.625 Z M 23.5 -20.25 C 26.53125 -20.25 28.832031 -20.90625 30.40625 -22.21875 C 31.988281 -23.53125 32.78125 -25.390625 32.78125 -27.796875 C 32.78125 -30.242188 31.988281 -32.125 30.40625 -33.4375 C 28.832031 -34.75 26.53125 -35.40625 23.5 -35.40625 L 15.265625 -35.40625 L 15.265625 -20.25 Z M 23.5 -20.25 "/></g></g></g><g fill="#424242" fill-opacity="1"><g transform="translate(88.467098, 339.121236)"><g><path d="M 5.171875 -43.625 L 15.265625 -43.625 L 15.265625 -8.234375 L 37.140625 -8.234375 L 37.140625 0 L 5.171875 0 Z M 5.171875 -43.625 "/></g></g></g><g fill="#424242" fill-opacity="1"><g transform="translate(126.109759, 339.121236)"><g><path d="M 5.171875 -43.625 L 15.265625 -43.625 L 15.265625 0 L 5.171875 0 Z M 5.171875 -43.625 "/></g></g></g><g fill="#424242" fill-opacity="1"><g transform="translate(146.551462, 339.121236)"><g><path d="M 14.203125 -35.40625 L 0.25 -35.40625 L 0.25 -43.625 L 38.265625 -43.625 L 38.265625 -35.40625 L 24.3125 -35.40625 L 24.3125 0 L 14.203125 0 Z M 14.203125 -35.40625 "/></g></g></g><g fill="#42b095" fill-opacity="1"><g transform="translate(205.079859, 340.134049)"><g><path d="M 19.453125 0.640625 C 16.648438 0.640625 14.132812 0.257812 11.90625 -0.5 C 9.6875 -1.257812 7.835938 -2.257812 6.359375 -3.5 C 4.878906 -4.738281 3.773438 -6.097656 3.046875 -7.578125 L 5.90625 -11.046875 L 6.671875 -11.046875 C 9.421875 -6.398438 13.679688 -4.078125 19.453125 -4.078125 C 22.796875 -4.078125 25.285156 -4.773438 26.921875 -6.171875 C 28.554688 -7.578125 29.375 -9.523438 29.375 -12.015625 C 29.375 -13.484375 29.101562 -14.722656 28.5625 -15.734375 C 28.019531 -16.742188 27.128906 -17.609375 25.890625 -18.328125 C 24.660156 -19.054688 22.976562 -19.679688 20.84375 -20.203125 L 15.640625 -21.484375 C 11.765625 -22.421875 8.910156 -23.90625 7.078125 -25.9375 C 5.242188 -27.976562 4.328125 -30.5625 4.328125 -33.6875 C 4.328125 -35.894531 4.894531 -37.867188 6.03125 -39.609375 C 7.164062 -41.347656 8.828125 -42.703125 11.015625 -43.671875 C 13.203125 -44.648438 15.820312 -45.140625 18.875 -45.140625 C 22.21875 -45.140625 25.039062 -44.664062 27.34375 -43.71875 C 29.644531 -42.769531 31.488281 -41.351562 32.875 -39.46875 L 30.3125 -36.03125 L 29.546875 -36.03125 C 28.273438 -37.59375 26.765625 -38.738281 25.015625 -39.46875 C 23.273438 -40.195312 21.226562 -40.5625 18.875 -40.5625 C 15.789062 -40.5625 13.460938 -39.960938 11.890625 -38.765625 C 10.316406 -37.578125 9.53125 -35.925781 9.53125 -33.8125 C 9.53125 -31.800781 10.109375 -30.203125 11.265625 -29.015625 C 12.421875 -27.828125 14.367188 -26.910156 17.109375 -26.265625 L 22.421875 -24.984375 C 26.742188 -23.972656 29.875 -22.414062 31.8125 -20.3125 C 33.75 -18.21875 34.71875 -15.535156 34.71875 -12.265625 C 34.71875 -9.742188 34.15625 -7.515625 33.03125 -5.578125 C 31.90625 -3.640625 30.195312 -2.117188 27.90625 -1.015625 C 25.613281 0.0859375 22.796875 0.640625 19.453125 0.640625 Z M 19.453125 0.640625 "/></g></g></g><g fill="#42b095" fill-opacity="1"><g transform="translate(241.931378, 340.134049)"><g><path d="M 21.734375 0 L 16.53125 0 L 16.53125 -17.46875 L 1.15625 -44.5 L 6.875 -44.5 L 18.875 -23.640625 L 19.625 -23.640625 L 31.53125 -44.5 L 37.125 -44.5 L 21.734375 -17.46875 Z M 21.734375 0 "/></g></g></g><g fill="#42b095" fill-opacity="1"><g transform="translate(280.182953, 340.134049)"><g><path d="M 11.84375 0 L 6.71875 0 L 6.71875 -44.5 L 13.140625 -44.5 L 34.84375 -10.5 L 35.609375 -10.625 L 35.609375 -44.5 L 40.6875 -44.5 L 40.6875 0 L 35.21875 0 L 12.59375 -36.375 L 11.84375 -36.25 Z M 11.84375 0 "/></g></g></g><g fill="#42b095" fill-opacity="1"><g transform="translate(327.624641, 340.134049)"><g><path d="M 24.59375 0.640625 C 20.695312 0.640625 17.222656 -0.25 14.171875 -2.03125 C 11.128906 -3.820312 8.742188 -6.4375 7.015625 -9.875 C 5.296875 -13.3125 4.4375 -17.4375 4.4375 -22.25 C 4.4375 -27.050781 5.296875 -31.171875 7.015625 -34.609375 C 8.742188 -38.054688 11.128906 -40.671875 14.171875 -42.453125 C 17.222656 -44.242188 20.695312 -45.140625 24.59375 -45.140625 C 28.75 -45.140625 32.207031 -44.351562 34.96875 -42.78125 C 37.726562 -41.207031 39.71875 -38.835938 40.9375 -35.671875 L 37.578125 -33.453125 L 36.828125 -33.453125 C 35.609375 -35.984375 34.023438 -37.78125 32.078125 -38.84375 C 30.128906 -39.914062 27.632812 -40.453125 24.59375 -40.453125 C 21.789062 -40.453125 19.300781 -39.828125 17.125 -38.578125 C 14.957031 -37.328125 13.234375 -35.347656 11.953125 -32.640625 C 10.679688 -29.929688 10.046875 -26.46875 10.046875 -22.25 C 10.046875 -18.03125 10.679688 -14.570312 11.953125 -11.875 C 13.234375 -9.175781 14.957031 -7.203125 17.125 -5.953125 C 19.300781 -4.703125 21.789062 -4.078125 24.59375 -4.078125 C 27.8125 -4.078125 30.445312 -4.800781 32.5 -6.25 C 34.550781 -7.707031 36.070312 -10.054688 37.0625 -13.296875 L 37.828125 -13.296875 L 41.328125 -11.5625 C 40.273438 -7.625 38.320312 -4.601562 35.46875 -2.5 C 32.613281 -0.40625 28.988281 0.640625 24.59375 0.640625 Z M 24.59375 0.640625 "/></g></g></g></svg>