<svg xmlns="http://www.w3.org/2000/svg" xmlns:xlink="http://www.w3.org/1999/xlink" width="500" zoomAndPan="magnify" viewBox="0 0 375 374.999991" height="500" preserveAspectRatio="xMidYMid meet" version="1.0"><defs><g/><clipPath id="84652d3896"><path d="M 44 124 L 130 124 L 130 210 L 44 210 Z M 44 124 " clip-rule="nonzero"/></clipPath><clipPath id="d784a2bb30"><path d="M 25.277344 171.300781 L 91.035156 105.539062 L 130.28125 144.785156 L 64.519531 210.546875 Z M 25.277344 171.300781 " clip-rule="nonzero"/></clipPath><clipPath id="3ac7e2528e"><path d="M 25.277344 171.300781 L 91.035156 105.539062 L 130.28125 144.785156 L 64.519531 210.546875 Z M 25.277344 171.300781 " clip-rule="nonzero"/></clipPath><clipPath id="c5b6c2f77b"><path d="M 50 165 L 136 165 L 136 251 L 50 251 Z M 50 165 " clip-rule="nonzero"/></clipPath><clipPath id="13e50a2f88"><path d="M 154.828125 203.691406 L 89.066406 269.453125 L 49.824219 230.210938 L 115.582031 164.449219 Z M 154.828125 203.691406 " clip-rule="nonzero"/></clipPath><clipPath id="178d84fa1a"><path d="M 154.828125 203.691406 L 89.066406 269.453125 L 49.824219 230.210938 L 115.582031 164.449219 Z M 154.828125 203.691406 " clip-rule="nonzero"/></clipPath></defs><g clip-path="url(#84652d3896)"><g clip-path="url(#d784a2bb30)"><g clip-path="url(#3ac7e2528e)"><path fill="#42b095" d="M 123.828125 138.226562 L 128.964844 143.363281 C 129.113281 143.515625 129.230469 143.6875 129.3125 143.882812 C 129.394531 144.078125 129.433594 144.28125 129.433594 144.492188 C 129.433594 144.703125 129.394531 144.910156 129.3125 145.105469 C 129.230469 145.300781 129.113281 145.472656 128.964844 145.621094 L 65.429688 209.15625 C 65.28125 209.304688 65.109375 209.421875 64.914062 209.503906 C 64.71875 209.585938 64.515625 209.625 64.300781 209.625 C 64.089844 209.625 63.886719 209.585938 63.691406 209.503906 C 63.496094 209.421875 63.324219 209.304688 63.175781 209.15625 L 58.035156 204.015625 C 56.960938 202.941406 55.9375 201.8125 54.972656 200.632812 C 54.003906 199.457031 53.097656 198.234375 52.25 196.96875 C 51.40625 195.699219 50.621094 194.394531 49.902344 193.050781 C 49.1875 191.707031 48.535156 190.332031 47.953125 188.925781 C 47.371094 187.515625 46.855469 186.085938 46.414062 184.625 C 45.972656 183.167969 45.601562 181.691406 45.304688 180.199219 C 45.007812 178.703125 44.785156 177.199219 44.636719 175.683594 C 44.484375 174.164062 44.410156 172.644531 44.410156 171.121094 C 44.410156 169.597656 44.484375 168.078125 44.636719 166.5625 C 44.785156 165.046875 45.007812 163.539062 45.304688 162.046875 C 45.601562 160.550781 45.972656 159.074219 46.414062 157.617188 C 46.855469 156.160156 47.371094 154.726562 47.953125 153.320312 C 48.535156 151.910156 49.1875 150.535156 49.902344 149.191406 C 50.621094 147.847656 51.40625 146.542969 52.25 145.277344 C 53.097656 144.011719 54.003906 142.789062 54.972656 141.609375 C 55.9375 140.433594 56.960938 139.304688 58.035156 138.226562 C 59.113281 137.148438 60.242188 136.128906 61.417969 135.160156 C 62.597656 134.195312 63.820312 133.289062 65.085938 132.441406 C 66.351562 131.59375 67.660156 130.8125 69.003906 130.09375 C 70.347656 129.375 71.722656 128.726562 73.128906 128.144531 C 74.535156 127.558594 75.96875 127.046875 77.425781 126.605469 C 78.886719 126.164062 80.363281 125.792969 81.855469 125.496094 C 83.351562 125.199219 84.855469 124.976562 86.371094 124.824219 C 87.886719 124.675781 89.40625 124.601562 90.933594 124.601562 C 92.457031 124.601562 93.976562 124.675781 95.492188 124.824219 C 97.007812 124.976562 98.511719 125.199219 100.007812 125.496094 C 101.5 125.792969 102.976562 126.164062 104.4375 126.605469 C 105.894531 127.046875 107.328125 127.558594 108.734375 128.144531 C 110.140625 128.726562 111.519531 129.375 112.863281 130.09375 C 114.203125 130.8125 115.511719 131.59375 116.777344 132.441406 C 118.042969 133.289062 119.265625 134.195312 120.445312 135.160156 C 121.621094 136.128906 122.75 137.148438 123.828125 138.226562 Z M 123.828125 138.226562 " fill-opacity="1" fill-rule="nonzero"/></g></g></g><g clip-path="url(#c5b6c2f77b)"><g clip-path="url(#13e50a2f88)"><g clip-path="url(#178d84fa1a)"><path fill="#42b095" d="M 56.277344 236.769531 L 51.136719 231.628906 C 50.988281 231.480469 50.871094 231.308594 50.789062 231.113281 C 50.710938 230.917969 50.667969 230.714844 50.667969 230.5 C 50.667969 230.289062 50.710938 230.085938 50.789062 229.890625 C 50.871094 229.695312 50.988281 229.523438 51.136719 229.375 L 114.671875 165.839844 C 114.820312 165.6875 114.996094 165.574219 115.191406 165.492188 C 115.386719 165.410156 115.589844 165.371094 115.800781 165.371094 C 116.011719 165.371094 116.214844 165.410156 116.410156 165.492188 C 116.605469 165.574219 116.78125 165.6875 116.929688 165.839844 L 122.066406 170.976562 C 123.144531 172.054688 124.164062 173.183594 125.132812 174.359375 C 126.097656 175.539062 127.003906 176.761719 127.851562 178.027344 C 128.699219 179.292969 129.480469 180.597656 130.199219 181.941406 C 130.917969 183.285156 131.566406 184.664062 132.152344 186.070312 C 132.734375 187.476562 133.246094 188.910156 133.6875 190.367188 C 134.132812 191.828125 134.5 193.300781 134.796875 194.796875 C 135.09375 196.292969 135.320312 197.796875 135.46875 199.3125 C 135.617188 200.828125 135.691406 202.347656 135.691406 203.871094 C 135.691406 205.394531 135.617188 206.917969 135.46875 208.433594 C 135.320312 209.949219 135.09375 211.453125 134.796875 212.949219 C 134.5 214.441406 134.132812 215.917969 133.6875 217.375 C 133.246094 218.835938 132.734375 220.269531 132.152344 221.675781 C 131.566406 223.082031 130.917969 224.457031 130.199219 225.800781 C 129.480469 227.144531 128.699219 228.453125 127.851562 229.71875 C 127.003906 230.984375 126.097656 232.207031 125.132812 233.386719 C 124.164062 234.5625 123.144531 235.691406 122.066406 236.769531 C 120.988281 237.84375 119.863281 238.867188 118.683594 239.832031 C 117.507812 240.800781 116.285156 241.707031 115.015625 242.554688 C 113.75 243.398438 112.445312 244.183594 111.101562 244.898438 C 109.757812 245.617188 108.382812 246.269531 106.972656 246.851562 C 105.566406 247.433594 104.132812 247.949219 102.675781 248.390625 C 101.21875 248.832031 99.742188 249.203125 98.246094 249.5 C 96.753906 249.796875 95.246094 250.019531 93.730469 250.167969 C 92.214844 250.320312 90.695312 250.394531 89.171875 250.394531 C 87.648438 250.394531 86.128906 250.320312 84.613281 250.167969 C 83.09375 250.019531 81.589844 249.796875 80.097656 249.5 C 78.601562 249.203125 77.125 248.832031 75.667969 248.390625 C 74.210938 247.949219 72.777344 247.433594 71.367188 246.851562 C 69.960938 246.269531 68.585938 245.617188 67.242188 244.898438 C 65.898438 244.183594 64.59375 243.398438 63.324219 242.554688 C 62.058594 241.707031 60.835938 240.800781 59.660156 239.832031 C 58.480469 238.867188 57.355469 237.84375 56.277344 236.769531 Z M 56.277344 236.769531 " fill-opacity="1" fill-rule="nonzero"/></g></g></g><g fill="#424242" fill-opacity="1"><g transform="translate(142.963988, 188.948723)"><g><path d="M 11.203125 0.421875 C 9.222656 0.421875 7.304688 0.15625 5.453125 -0.375 C 3.609375 -0.914062 2.125 -1.613281 1 -2.46875 L 2.96875 -6.828125 C 4.039062 -6.046875 5.316406 -5.414062 6.796875 -4.9375 C 8.273438 -4.457031 9.753906 -4.21875 11.234375 -4.21875 C 12.878906 -4.21875 14.09375 -4.460938 14.875 -4.953125 C 15.664062 -5.441406 16.0625 -6.09375 16.0625 -6.90625 C 16.0625 -7.5 15.828125 -7.992188 15.359375 -8.390625 C 14.898438 -8.785156 14.304688 -9.101562 13.578125 -9.34375 C 12.847656 -9.582031 11.863281 -9.84375 10.625 -10.125 C 8.71875 -10.582031 7.15625 -11.035156 5.9375 -11.484375 C 4.71875 -11.941406 3.671875 -12.671875 2.796875 -13.671875 C 1.929688 -14.671875 1.5 -16.003906 1.5 -17.671875 C 1.5 -19.128906 1.890625 -20.445312 2.671875 -21.625 C 3.460938 -22.8125 4.648438 -23.75 6.234375 -24.4375 C 7.828125 -25.125 9.769531 -25.46875 12.0625 -25.46875 C 13.65625 -25.46875 15.210938 -25.273438 16.734375 -24.890625 C 18.265625 -24.515625 19.601562 -23.96875 20.75 -23.25 L 18.96875 -18.859375 C 16.65625 -20.171875 14.335938 -20.828125 12.015625 -20.828125 C 10.398438 -20.828125 9.203125 -20.5625 8.421875 -20.03125 C 7.648438 -19.507812 7.265625 -18.820312 7.265625 -17.96875 C 7.265625 -17.101562 7.710938 -16.460938 8.609375 -16.046875 C 9.503906 -15.628906 10.867188 -15.21875 12.703125 -14.8125 C 14.609375 -14.363281 16.171875 -13.910156 17.390625 -13.453125 C 18.609375 -13.003906 19.648438 -12.289062 20.515625 -11.3125 C 21.390625 -10.332031 21.828125 -9.003906 21.828125 -7.328125 C 21.828125 -5.898438 21.425781 -4.59375 20.625 -3.40625 C 19.820312 -2.226562 18.625 -1.296875 17.03125 -0.609375 C 15.4375 0.078125 13.492188 0.421875 11.203125 0.421875 Z M 11.203125 0.421875 "/></g></g></g><g fill="#424242" fill-opacity="1"><g transform="translate(165.792623, 188.948723)"><g><path d="M 13.8125 -25.046875 C 16.03125 -25.046875 17.957031 -24.675781 19.59375 -23.9375 C 21.226562 -23.195312 22.484375 -22.144531 23.359375 -20.78125 C 24.242188 -19.425781 24.6875 -17.816406 24.6875 -15.953125 C 24.6875 -14.117188 24.242188 -12.515625 23.359375 -11.140625 C 22.484375 -9.773438 21.226562 -8.726562 19.59375 -8 C 17.957031 -7.269531 16.03125 -6.90625 13.8125 -6.90625 L 8.765625 -6.90625 L 8.765625 0 L 2.96875 0 L 2.96875 -25.046875 Z M 13.484375 -11.625 C 15.222656 -11.625 16.546875 -12 17.453125 -12.75 C 18.367188 -13.507812 18.828125 -14.578125 18.828125 -15.953125 C 18.828125 -17.359375 18.367188 -18.4375 17.453125 -19.1875 C 16.546875 -19.945312 15.222656 -20.328125 13.484375 -20.328125 L 8.765625 -20.328125 L 8.765625 -11.625 Z M 13.484375 -11.625 "/></g></g></g><g fill="#424242" fill-opacity="1"><g transform="translate(191.626848, 188.948723)"><g><path d="M 2.96875 -25.046875 L 8.765625 -25.046875 L 8.765625 -4.71875 L 21.328125 -4.71875 L 21.328125 0 L 2.96875 0 Z M 2.96875 -25.046875 "/></g></g></g><g fill="#424242" fill-opacity="1"><g transform="translate(213.238913, 188.948723)"><g><path d="M 2.96875 -25.046875 L 8.765625 -25.046875 L 8.765625 0 L 2.96875 0 Z M 2.96875 -25.046875 "/></g></g></g><g fill="#424242" fill-opacity="1"><g transform="translate(224.975263, 188.948723)"><g><path d="M 8.15625 -20.328125 L 0.140625 -20.328125 L 0.140625 -25.046875 L 21.96875 -25.046875 L 21.96875 -20.328125 L 13.953125 -20.328125 L 13.953125 0 L 8.15625 0 Z M 8.15625 -20.328125 "/></g></g></g><g fill="#42b095" fill-opacity="1"><g transform="translate(254.280633, 190.067444)"><g><path d="M 11.171875 0.359375 C 9.554688 0.359375 8.109375 0.144531 6.828125 -0.28125 C 5.554688 -0.71875 4.492188 -1.289062 3.640625 -2 C 2.796875 -2.71875 2.164062 -3.5 1.75 -4.34375 L 3.390625 -6.34375 L 3.828125 -6.34375 C 5.410156 -3.675781 7.859375 -2.34375 11.171875 -2.34375 C 13.085938 -2.34375 14.515625 -2.742188 15.453125 -3.546875 C 16.390625 -4.347656 16.859375 -5.46875 16.859375 -6.90625 C 16.859375 -7.738281 16.703125 -8.445312 16.390625 -9.03125 C 16.085938 -9.613281 15.578125 -10.109375 14.859375 -10.515625 C 14.148438 -10.929688 13.1875 -11.289062 11.96875 -11.59375 L 8.984375 -12.328125 C 6.753906 -12.867188 5.113281 -13.722656 4.0625 -14.890625 C 3.007812 -16.066406 2.484375 -17.550781 2.484375 -19.34375 C 2.484375 -20.613281 2.804688 -21.742188 3.453125 -22.734375 C 4.109375 -23.734375 5.066406 -24.507812 6.328125 -25.0625 C 7.585938 -25.625 9.085938 -25.90625 10.828125 -25.90625 C 12.753906 -25.90625 14.378906 -25.632812 15.703125 -25.09375 C 17.023438 -24.550781 18.082031 -23.738281 18.875 -22.65625 L 17.40625 -20.6875 L 16.96875 -20.6875 C 16.226562 -21.582031 15.359375 -22.238281 14.359375 -22.65625 C 13.359375 -23.082031 12.179688 -23.296875 10.828125 -23.296875 C 9.054688 -23.296875 7.71875 -22.953125 6.8125 -22.265625 C 5.914062 -21.578125 5.46875 -20.625 5.46875 -19.40625 C 5.46875 -18.257812 5.796875 -17.34375 6.453125 -16.65625 C 7.117188 -15.976562 8.238281 -15.453125 9.8125 -15.078125 L 12.875 -14.34375 C 15.351562 -13.757812 17.148438 -12.863281 18.265625 -11.65625 C 19.378906 -10.457031 19.9375 -8.921875 19.9375 -7.046875 C 19.9375 -5.597656 19.613281 -4.316406 18.96875 -3.203125 C 18.320312 -2.085938 17.335938 -1.210938 16.015625 -0.578125 C 14.703125 0.046875 13.085938 0.359375 11.171875 0.359375 Z M 11.171875 0.359375 "/></g></g></g><g fill="#42b095" fill-opacity="1"><g transform="translate(275.438475, 190.067444)"><g><path d="M 12.46875 0 L 9.484375 0 L 9.484375 -10.03125 L 0.65625 -25.546875 L 3.953125 -25.546875 L 10.828125 -13.578125 L 11.265625 -13.578125 L 18.09375 -25.546875 L 21.3125 -25.546875 L 12.46875 -10.03125 Z M 12.46875 0 "/></g></g></g><g fill="#42b095" fill-opacity="1"><g transform="translate(297.400141, 190.067444)"><g><path d="M 6.796875 0 L 3.859375 0 L 3.859375 -25.546875 L 7.546875 -25.546875 L 20 -6.03125 L 20.4375 -6.09375 L 20.4375 -25.546875 L 23.359375 -25.546875 L 23.359375 0 L 20.21875 0 L 7.234375 -20.875 L 6.796875 -20.8125 Z M 6.796875 0 "/></g></g></g><g fill="#42b095" fill-opacity="1"><g transform="translate(324.638195, 190.067444)"><g><path d="M 14.109375 0.359375 C 11.878906 0.359375 9.890625 -0.148438 8.140625 -1.171875 C 6.390625 -2.191406 5.019531 -3.6875 4.03125 -5.65625 C 3.039062 -7.632812 2.546875 -10.003906 2.546875 -12.765625 C 2.546875 -15.523438 3.039062 -17.890625 4.03125 -19.859375 C 5.019531 -21.835938 6.390625 -23.335938 8.140625 -24.359375 C 9.890625 -25.390625 11.878906 -25.90625 14.109375 -25.90625 C 16.503906 -25.90625 18.492188 -25.453125 20.078125 -24.546875 C 21.660156 -23.648438 22.800781 -22.289062 23.5 -20.46875 L 21.578125 -19.203125 L 21.140625 -19.203125 C 20.441406 -20.660156 19.53125 -21.691406 18.40625 -22.296875 C 17.289062 -22.910156 15.859375 -23.21875 14.109375 -23.21875 C 12.503906 -23.21875 11.078125 -22.859375 9.828125 -22.140625 C 8.585938 -21.429688 7.597656 -20.296875 6.859375 -18.734375 C 6.128906 -17.179688 5.765625 -15.191406 5.765625 -12.765625 C 5.765625 -10.347656 6.128906 -8.363281 6.859375 -6.8125 C 7.597656 -5.257812 8.585938 -4.125 9.828125 -3.40625 C 11.078125 -2.695312 12.503906 -2.34375 14.109375 -2.34375 C 15.960938 -2.34375 17.476562 -2.757812 18.65625 -3.59375 C 19.832031 -4.425781 20.707031 -5.773438 21.28125 -7.640625 L 21.71875 -7.640625 L 23.71875 -6.640625 C 23.113281 -4.378906 21.992188 -2.644531 20.359375 -1.4375 C 18.722656 -0.238281 16.640625 0.359375 14.109375 0.359375 Z M 14.109375 0.359375 "/></g></g></g></svg>