<svg xmlns="http://www.w3.org/2000/svg" xmlns:xlink="http://www.w3.org/1999/xlink" width="500" zoomAndPan="magnify" viewBox="0 0 375 374.999991" height="500" preserveAspectRatio="xMidYMid meet" version="1.0"><defs><g/><clipPath id="7383e924de"><path d="M 145 108 L 231 108 L 231 194 L 145 194 Z M 145 108 " clip-rule="nonzero"/></clipPath><clipPath id="fb0a2fda75"><path d="M 125.941406 155.632812 L 191.703125 89.871094 L 230.945312 129.117188 L 165.183594 194.878906 Z M 125.941406 155.632812 " clip-rule="nonzero"/></clipPath><clipPath id="df6fa2f43a"><path d="M 125.941406 155.632812 L 191.703125 89.871094 L 230.945312 129.117188 L 165.183594 194.878906 Z M 125.941406 155.632812 " clip-rule="nonzero"/></clipPath><clipPath id="b3486f079a"><path d="M 151 149 L 237 149 L 237 235 L 151 235 Z M 151 149 " clip-rule="nonzero"/></clipPath><clipPath id="fe74a080a6"><path d="M 255.492188 188.023438 L 189.730469 253.785156 L 150.488281 214.539062 L 216.25 148.78125 Z M 255.492188 188.023438 " clip-rule="nonzero"/></clipPath><clipPath id="68e2136eee"><path d="M 255.492188 188.023438 L 189.730469 253.785156 L 150.488281 214.539062 L 216.25 148.78125 Z M 255.492188 188.023438 " clip-rule="nonzero"/></clipPath></defs><g clip-path="url(#7383e924de)"><g clip-path="url(#fb0a2fda75)"><g clip-path="url(#df6fa2f43a)"><path fill="#42b095" d="M 224.492188 122.558594 L 229.628906 127.695312 C 229.78125 127.84375 229.894531 128.019531 229.976562 128.214844 C 230.058594 128.410156 230.101562 128.613281 230.101562 128.824219 C 230.101562 129.035156 230.058594 129.238281 229.976562 129.433594 C 229.894531 129.628906 229.78125 129.804688 229.628906 129.953125 L 166.09375 193.488281 C 165.945312 193.636719 165.773438 193.753906 165.578125 193.835938 C 165.382812 193.914062 165.179688 193.957031 164.96875 193.957031 C 164.753906 193.957031 164.550781 193.914062 164.355469 193.835938 C 164.160156 193.753906 163.988281 193.636719 163.839844 193.488281 L 158.703125 188.347656 C 157.625 187.269531 156.601562 186.144531 155.636719 184.964844 C 154.667969 183.789062 153.761719 182.566406 152.917969 181.300781 C 152.070312 180.03125 151.289062 178.726562 150.570312 177.382812 C 149.851562 176.039062 149.199219 174.664062 148.617188 173.257812 C 148.035156 171.847656 147.523438 170.414062 147.078125 168.957031 C 146.636719 167.5 146.265625 166.023438 145.96875 164.527344 C 145.671875 163.035156 145.449219 161.53125 145.300781 160.011719 C 145.152344 158.496094 145.074219 156.976562 145.074219 155.453125 C 145.074219 153.929688 145.152344 152.410156 145.300781 150.894531 C 145.449219 149.378906 145.671875 147.871094 145.96875 146.378906 C 146.265625 144.882812 146.636719 143.40625 147.078125 141.949219 C 147.523438 140.492188 148.035156 139.058594 148.617188 137.652344 C 149.199219 136.242188 149.851562 134.867188 150.570312 133.523438 C 151.289062 132.179688 152.070312 130.875 152.917969 129.609375 C 153.761719 128.339844 154.667969 127.117188 155.636719 125.941406 C 156.601562 124.761719 157.625 123.636719 158.703125 122.558594 C 159.777344 121.480469 160.90625 120.460938 162.085938 119.492188 C 163.261719 118.527344 164.484375 117.621094 165.75 116.773438 C 167.019531 115.925781 168.324219 115.144531 169.667969 114.425781 C 171.011719 113.707031 172.386719 113.058594 173.792969 112.472656 C 175.203125 111.890625 176.632812 111.378906 178.09375 110.9375 C 179.550781 110.492188 181.027344 110.125 182.519531 109.828125 C 184.015625 109.53125 185.519531 109.304688 187.035156 109.15625 C 188.554688 109.007812 190.074219 108.933594 191.597656 108.933594 C 193.121094 108.933594 194.640625 109.007812 196.15625 109.15625 C 197.671875 109.304688 199.179688 109.53125 200.671875 109.828125 C 202.167969 110.125 203.644531 110.492188 205.101562 110.9375 C 206.558594 111.378906 207.992188 111.890625 209.398438 112.472656 C 210.808594 113.058594 212.183594 113.707031 213.527344 114.425781 C 214.871094 115.144531 216.175781 115.925781 217.441406 116.773438 C 218.710938 117.621094 219.929688 118.527344 221.109375 119.492188 C 222.285156 120.460938 223.414062 121.480469 224.492188 122.558594 Z M 224.492188 122.558594 " fill-opacity="1" fill-rule="nonzero"/></g></g></g><g clip-path="url(#b3486f079a)"><g clip-path="url(#fe74a080a6)"><g clip-path="url(#68e2136eee)"><path fill="#42b095" d="M 156.941406 221.097656 L 151.804688 215.960938 C 151.652344 215.8125 151.539062 215.640625 151.457031 215.445312 C 151.375 215.25 151.332031 215.046875 151.332031 214.832031 C 151.332031 214.621094 151.375 214.417969 151.457031 214.222656 C 151.539062 214.027344 151.652344 213.855469 151.804688 213.707031 L 215.339844 150.171875 C 215.488281 150.019531 215.660156 149.90625 215.855469 149.824219 C 216.050781 149.742188 216.253906 149.699219 216.464844 149.699219 C 216.675781 149.699219 216.882812 149.742188 217.078125 149.824219 C 217.273438 149.90625 217.445312 150.019531 217.59375 150.171875 L 222.730469 155.308594 C 223.808594 156.386719 224.832031 157.515625 225.796875 158.691406 C 226.765625 159.871094 227.671875 161.089844 228.515625 162.359375 C 229.363281 163.625 230.144531 164.929688 230.863281 166.273438 C 231.582031 167.617188 232.234375 168.992188 232.816406 170.402344 C 233.398438 171.808594 233.910156 173.242188 234.355469 174.699219 C 234.796875 176.15625 235.167969 177.632812 235.464844 179.128906 C 235.761719 180.621094 235.984375 182.128906 236.132812 183.644531 C 236.28125 185.160156 236.355469 186.679688 236.355469 188.203125 C 236.355469 189.726562 236.28125 191.246094 236.132812 192.761719 C 235.984375 194.28125 235.761719 195.785156 235.464844 197.28125 C 235.167969 198.773438 234.796875 200.25 234.355469 201.707031 C 233.910156 203.167969 233.398438 204.597656 232.816406 206.007812 C 232.234375 207.414062 231.582031 208.789062 230.863281 210.132812 C 230.144531 211.476562 229.363281 212.78125 228.515625 214.050781 C 227.671875 215.316406 226.765625 216.539062 225.796875 217.714844 C 224.832031 218.894531 223.808594 220.023438 222.730469 221.097656 C 221.652344 222.175781 220.527344 223.199219 219.347656 224.164062 C 218.171875 225.132812 216.949219 226.039062 215.683594 226.882812 C 214.414062 227.730469 213.109375 228.511719 211.765625 229.230469 C 210.421875 229.949219 209.046875 230.601562 207.640625 231.183594 C 206.230469 231.765625 204.796875 232.277344 203.339844 232.722656 C 201.882812 233.164062 200.40625 233.535156 198.914062 233.832031 C 197.417969 234.128906 195.914062 234.351562 194.394531 234.5 C 192.878906 234.648438 191.359375 234.722656 189.835938 234.722656 C 188.3125 234.722656 186.792969 234.648438 185.277344 234.5 C 183.761719 234.351562 182.253906 234.128906 180.761719 233.832031 C 179.265625 233.535156 177.789062 233.164062 176.332031 232.722656 C 174.875 232.277344 173.441406 231.765625 172.035156 231.183594 C 170.625 230.601562 169.25 229.949219 167.90625 229.230469 C 166.5625 228.511719 165.257812 227.730469 163.992188 226.882812 C 162.722656 226.039062 161.503906 225.132812 160.324219 224.164062 C 159.144531 223.199219 158.019531 222.175781 156.941406 221.097656 Z M 156.941406 221.097656 " fill-opacity="1" fill-rule="nonzero"/></g></g></g><g fill="#424242" fill-opacity="1"><g transform="translate(83.320697, 275.357343)"><g><path d="M 11.203125 0.421875 C 9.222656 0.421875 7.304688 0.15625 5.453125 -0.375 C 3.609375 -0.914062 2.125 -1.613281 1 -2.46875 L 2.96875 -6.828125 C 4.039062 -6.046875 5.316406 -5.414062 6.796875 -4.9375 C 8.273438 -4.457031 9.753906 -4.21875 11.234375 -4.21875 C 12.878906 -4.21875 14.09375 -4.460938 14.875 -4.953125 C 15.664062 -5.441406 16.0625 -6.09375 16.0625 -6.90625 C 16.0625 -7.5 15.828125 -7.992188 15.359375 -8.390625 C 14.898438 -8.785156 14.304688 -9.101562 13.578125 -9.34375 C 12.847656 -9.582031 11.863281 -9.84375 10.625 -10.125 C 8.71875 -10.582031 7.15625 -11.035156 5.9375 -11.484375 C 4.71875 -11.941406 3.671875 -12.671875 2.796875 -13.671875 C 1.929688 -14.671875 1.5 -16.003906 1.5 -17.671875 C 1.5 -19.128906 1.890625 -20.445312 2.671875 -21.625 C 3.460938 -22.8125 4.648438 -23.75 6.234375 -24.4375 C 7.828125 -25.125 9.769531 -25.46875 12.0625 -25.46875 C 13.65625 -25.46875 15.210938 -25.273438 16.734375 -24.890625 C 18.265625 -24.515625 19.601562 -23.96875 20.75 -23.25 L 18.96875 -18.859375 C 16.65625 -20.171875 14.335938 -20.828125 12.015625 -20.828125 C 10.398438 -20.828125 9.203125 -20.5625 8.421875 -20.03125 C 7.648438 -19.507812 7.265625 -18.820312 7.265625 -17.96875 C 7.265625 -17.101562 7.710938 -16.460938 8.609375 -16.046875 C 9.503906 -15.628906 10.867188 -15.21875 12.703125 -14.8125 C 14.609375 -14.363281 16.171875 -13.910156 17.390625 -13.453125 C 18.609375 -13.003906 19.648438 -12.289062 20.515625 -11.3125 C 21.390625 -10.332031 21.828125 -9.003906 21.828125 -7.328125 C 21.828125 -5.898438 21.425781 -4.59375 20.625 -3.40625 C 19.820312 -2.226562 18.625 -1.296875 17.03125 -0.609375 C 15.4375 0.078125 13.492188 0.421875 11.203125 0.421875 Z M 11.203125 0.421875 "/></g></g></g><g fill="#424242" fill-opacity="1"><g transform="translate(106.149331, 275.357343)"><g><path d="M 13.8125 -25.046875 C 16.03125 -25.046875 17.957031 -24.675781 19.59375 -23.9375 C 21.226562 -23.195312 22.484375 -22.144531 23.359375 -20.78125 C 24.242188 -19.425781 24.6875 -17.816406 24.6875 -15.953125 C 24.6875 -14.117188 24.242188 -12.515625 23.359375 -11.140625 C 22.484375 -9.773438 21.226562 -8.726562 19.59375 -8 C 17.957031 -7.269531 16.03125 -6.90625 13.8125 -6.90625 L 8.765625 -6.90625 L 8.765625 0 L 2.96875 0 L 2.96875 -25.046875 Z M 13.484375 -11.625 C 15.222656 -11.625 16.546875 -12 17.453125 -12.75 C 18.367188 -13.507812 18.828125 -14.578125 18.828125 -15.953125 C 18.828125 -17.359375 18.367188 -18.4375 17.453125 -19.1875 C 16.546875 -19.945312 15.222656 -20.328125 13.484375 -20.328125 L 8.765625 -20.328125 L 8.765625 -11.625 Z M 13.484375 -11.625 "/></g></g></g><g fill="#424242" fill-opacity="1"><g transform="translate(131.983557, 275.357343)"><g><path d="M 2.96875 -25.046875 L 8.765625 -25.046875 L 8.765625 -4.71875 L 21.328125 -4.71875 L 21.328125 0 L 2.96875 0 Z M 2.96875 -25.046875 "/></g></g></g><g fill="#424242" fill-opacity="1"><g transform="translate(153.595622, 275.357343)"><g><path d="M 2.96875 -25.046875 L 8.765625 -25.046875 L 8.765625 0 L 2.96875 0 Z M 2.96875 -25.046875 "/></g></g></g><g fill="#424242" fill-opacity="1"><g transform="translate(165.331971, 275.357343)"><g><path d="M 8.15625 -20.328125 L 0.140625 -20.328125 L 0.140625 -25.046875 L 21.96875 -25.046875 L 21.96875 -20.328125 L 13.953125 -20.328125 L 13.953125 0 L 8.15625 0 Z M 8.15625 -20.328125 "/></g></g></g><g fill="#42b095" fill-opacity="1"><g transform="translate(196.251203, 276.476064)"><g><path d="M 11.171875 0.359375 C 9.554688 0.359375 8.109375 0.144531 6.828125 -0.28125 C 5.554688 -0.71875 4.492188 -1.289062 3.640625 -2 C 2.796875 -2.71875 2.164062 -3.5 1.75 -4.34375 L 3.390625 -6.34375 L 3.828125 -6.34375 C 5.410156 -3.675781 7.859375 -2.34375 11.171875 -2.34375 C 13.085938 -2.34375 14.515625 -2.742188 15.453125 -3.546875 C 16.390625 -4.347656 16.859375 -5.46875 16.859375 -6.90625 C 16.859375 -7.738281 16.703125 -8.445312 16.390625 -9.03125 C 16.085938 -9.613281 15.578125 -10.109375 14.859375 -10.515625 C 14.148438 -10.929688 13.1875 -11.289062 11.96875 -11.59375 L 8.984375 -12.328125 C 6.753906 -12.867188 5.113281 -13.722656 4.0625 -14.890625 C 3.007812 -16.066406 2.484375 -17.550781 2.484375 -19.34375 C 2.484375 -20.613281 2.804688 -21.742188 3.453125 -22.734375 C 4.109375 -23.734375 5.066406 -24.507812 6.328125 -25.0625 C 7.585938 -25.625 9.085938 -25.90625 10.828125 -25.90625 C 12.753906 -25.90625 14.378906 -25.632812 15.703125 -25.09375 C 17.023438 -24.550781 18.082031 -23.738281 18.875 -22.65625 L 17.40625 -20.6875 L 16.96875 -20.6875 C 16.226562 -21.582031 15.359375 -22.238281 14.359375 -22.65625 C 13.359375 -23.082031 12.179688 -23.296875 10.828125 -23.296875 C 9.054688 -23.296875 7.71875 -22.953125 6.8125 -22.265625 C 5.914062 -21.578125 5.46875 -20.625 5.46875 -19.40625 C 5.46875 -18.257812 5.796875 -17.34375 6.453125 -16.65625 C 7.117188 -15.976562 8.238281 -15.453125 9.8125 -15.078125 L 12.875 -14.34375 C 15.351562 -13.757812 17.148438 -12.863281 18.265625 -11.65625 C 19.378906 -10.457031 19.9375 -8.921875 19.9375 -7.046875 C 19.9375 -5.597656 19.613281 -4.316406 18.96875 -3.203125 C 18.320312 -2.085938 17.335938 -1.210938 16.015625 -0.578125 C 14.703125 0.046875 13.085938 0.359375 11.171875 0.359375 Z M 11.171875 0.359375 "/></g></g></g><g fill="#42b095" fill-opacity="1"><g transform="translate(217.409044, 276.476064)"><g><path d="M 12.46875 0 L 9.484375 0 L 9.484375 -10.03125 L 0.65625 -25.546875 L 3.953125 -25.546875 L 10.828125 -13.578125 L 11.265625 -13.578125 L 18.09375 -25.546875 L 21.3125 -25.546875 L 12.46875 -10.03125 Z M 12.46875 0 "/></g></g></g><g fill="#42b095" fill-opacity="1"><g transform="translate(239.37071, 276.476064)"><g><path d="M 6.796875 0 L 3.859375 0 L 3.859375 -25.546875 L 7.546875 -25.546875 L 20 -6.03125 L 20.4375 -6.09375 L 20.4375 -25.546875 L 23.359375 -25.546875 L 23.359375 0 L 20.21875 0 L 7.234375 -20.875 L 6.796875 -20.8125 Z M 6.796875 0 "/></g></g></g><g fill="#42b095" fill-opacity="1"><g transform="translate(266.608765, 276.476064)"><g><path d="M 14.109375 0.359375 C 11.878906 0.359375 9.890625 -0.148438 8.140625 -1.171875 C 6.390625 -2.191406 5.019531 -3.6875 4.03125 -5.65625 C 3.039062 -7.632812 2.546875 -10.003906 2.546875 -12.765625 C 2.546875 -15.523438 3.039062 -17.890625 4.03125 -19.859375 C 5.019531 -21.835938 6.390625 -23.335938 8.140625 -24.359375 C 9.890625 -25.390625 11.878906 -25.90625 14.109375 -25.90625 C 16.503906 -25.90625 18.492188 -25.453125 20.078125 -24.546875 C 21.660156 -23.648438 22.800781 -22.289062 23.5 -20.46875 L 21.578125 -19.203125 L 21.140625 -19.203125 C 20.441406 -20.660156 19.53125 -21.691406 18.40625 -22.296875 C 17.289062 -22.910156 15.859375 -23.21875 14.109375 -23.21875 C 12.503906 -23.21875 11.078125 -22.859375 9.828125 -22.140625 C 8.585938 -21.429688 7.597656 -20.296875 6.859375 -18.734375 C 6.128906 -17.179688 5.765625 -15.191406 5.765625 -12.765625 C 5.765625 -10.347656 6.128906 -8.363281 6.859375 -6.8125 C 7.597656 -5.257812 8.585938 -4.125 9.828125 -3.40625 C 11.078125 -2.695312 12.503906 -2.34375 14.109375 -2.34375 C 15.960938 -2.34375 17.476562 -2.757812 18.65625 -3.59375 C 19.832031 -4.425781 20.707031 -5.773438 21.28125 -7.640625 L 21.71875 -7.640625 L 23.71875 -6.640625 C 23.113281 -4.378906 21.992188 -2.644531 20.359375 -1.4375 C 18.722656 -0.238281 16.640625 0.359375 14.109375 0.359375 Z M 14.109375 0.359375 "/></g></g></g></svg>